<svg xmlns="http://www.w3.org/2000/svg" width="162" height="162"><g fill="none" fill-rule="evenodd" stroke-width="2" transform="translate(1 1)"><path fill="#222" stroke="#FFF" d="M112.382 81.731V65.858c3.654.743 6.415 4.02 6.415 7.937 0 3.918-2.762 7.194-6.415 7.936zm-4.203 18.497c0 .03 0 .055-.046.082-.054.032-.086.014-.112 0-12.92-7.322-26.928-11.717-41.662-13.08V60.362c14.736-1.365 28.743-5.76 41.661-13.08.027-.015.06-.033.113-.002.046.027.046.052.046.082v52.866zm-36.48 16.281c.007.018.011.03-.007.056-.018.026-.031.026-.049.026h-9.802a.06.06 0 0 1-.056-.037L52.74 91.258h9.925l9.034 25.251zM49.752 86.79a2.398 2.398 0 0 1-1.4-2.185V62.993c0-1.32 1.06-2.395 2.362-2.395h11.442v26.4s-11.541-.004-11.591-.007c-.422-.05-.51-.071-.813-.202zm-5.604-5.66H41.45a1.257 1.257 0 0 1-1.247-1.264V67.732c0-.697.56-1.264 1.247-1.264h2.698v14.66zm68.234-19.582V47.362a4.325 4.325 0 0 0-2.122-3.756 4.227 4.227 0 0 0-4.29-.042C93.05 50.884 78.997 55.16 64.201 56.27c-.114.009-13.487.068-13.487.068-3.36 0-6.136 2.57-6.52 5.87H41.45c-3.005 0-5.45 2.477-5.45 5.523v12.133c0 3.046 2.445 5.523 5.45 5.523h2.745a6.66 6.66 0 0 0 3.872 5.303l9.768 27.317c.61 1.7 2.22 2.843 4.006 2.843h9.802a4.25 4.25 0 0 0 3.492-1.842 4.371 4.371 0 0 0 .515-3.953l-8.392-23.458c13.676 1.44 26.684 5.613 38.711 12.429a4.271 4.271 0 0 0 2.11.563c.751 0 1.5-.202 2.18-.606a4.326 4.326 0 0 0 2.123-3.756V86.043C118.363 85.258 123 80.067 123 73.795c0-6.272-4.637-11.463-10.618-12.248z"/><circle cx="80" cy="80" r="80" fill-rule="nonzero" stroke="#E0E0E0"/></g></svg>