<svg xmlns="http://www.w3.org/2000/svg" width="162" height="162"><g fill="none" fill-rule="evenodd" transform="translate(1 1)"><path fill="#222" stroke="#FFF" d="M95.417 103h10.791v-6.133H95.417V103zm0-9.2h10.791v-6.133H95.417V93.8zm0-9.2h10.791v-6.133H95.417V84.6zm0-18.4h10.791v-6.133H95.417V66.2zm0 9.2h10.791v-6.133H95.417V75.4zm18.5 35.267h-18.5v-4.6h12.333c.851 0 1.542-.687 1.542-1.534v-46c0-.846-.69-1.533-1.542-1.533H95.417v-3.067c0-.846-.69-1.533-1.542-1.533H61.5V37.067h37v13.8c0 .846.69 1.533 1.542 1.533h13.875v58.267zm-67.834 12.266h46.25V55.467h-46.25v67.466zm55.5-83.704l10.16 10.104h-10.16V39.23zm15.34 11.147a.551.551 0 0 0 0-.138 1.793 1.793 0 0 0-.293-.46l-15.417-15.333a1.805 1.805 0 0 0-.462-.292h-.139a1.69 1.69 0 0 0-.478-.153H59.958c-.851 0-1.541.687-1.541 1.533V52.4H44.542c-.852 0-1.542.687-1.542 1.533v70.534c0 .846.69 1.533 1.542 1.533h49.333c.851 0 1.542-.687 1.542-1.533v-10.734h20.041c.852 0 1.542-.686 1.542-1.533V50.775a1.665 1.665 0 0 0-.077-.399z"/><path fill="#222" stroke="#FFF" d="M52.25 72.333h33.917v-9.2H52.25v9.2zm35.458-12.266h-37c-.851 0-1.541.686-1.541 1.533v12.267c0 .846.69 1.533 1.541 1.533h37c.852 0 1.542-.687 1.542-1.533V61.6c0-.847-.69-1.533-1.542-1.533zM80 89.2h6.167v-6.133H80V89.2zm0 9.2h6.167v-6.133H80V98.4zm0 18.4h6.167v-15.333H80V116.8zm-9.25-27.6h6.167v-6.133H70.75V89.2zm0 9.2h6.167v-6.133H70.75V98.4zm0 9.2h6.167v-6.133H70.75v6.133zm0 9.2h6.167v-6.133H70.75v6.133zM61.5 89.2h6.167v-6.133H61.5V89.2zm0 9.2h6.167v-6.133H61.5V98.4zm0 9.2h6.167v-6.133H61.5v6.133zm0 9.2h6.167v-6.133H61.5v6.133zm-9.25-27.6h6.167v-6.133H52.25V89.2zm0 9.2h6.167v-6.133H52.25V98.4zm0 9.2h6.167v-6.133H52.25v6.133zm0 9.2h6.167v-6.133H52.25v6.133zM87.708 80h-37c-.851 0-1.541.687-1.541 1.533v36.8c0 .847.69 1.534 1.541 1.534h37c.852 0 1.542-.687 1.542-1.534v-36.8c0-.846-.69-1.533-1.542-1.533z"/><path fill="#222" stroke="#FFF" d="M61.5 69.267h3.083V66.2H61.5zm6.167 0h3.083V66.2h-3.083zm6.166 0h3.084V66.2h-3.084zm6.167 0h3.083V66.2H80z"/><circle cx="80" cy="80" r="80" stroke="#E0E0E0" stroke-width="2"/></g></svg>