<svg xmlns="http://www.w3.org/2000/svg" width="162" height="162"><g fill="none" fill-rule="evenodd" transform="translate(1 1)"><path fill="#222" stroke="#FFF" stroke-width="2.4" d="M101.355 118.79h-43.51c-7.303 0-13.245-5.955-13.245-13.274 0-12.314 4.505-23.994 13.36-34.713 5.597-6.781 11.29-10.988 13.015-12.217h17.212c1.744 1.21 7.418 5.436 13.015 12.217 8.874 10.72 13.36 22.38 13.36 34.713.038 7.319-5.904 13.274-13.207 13.274zM61.487 38.8c2.223-1.922 4.35-2.767 6.9-2.767 2.722 0 5.789.922 9.871 2.44a7.773 7.773 0 0 0 2.665.46c2.242 0 4.389-.883 6.44-1.747 1.974-.826 3.852-1.614 5.673-1.614.882 0 2.128.154 3.7 1.268l-9.2 17.135H71.51L61.487 38.8zm53.151 44.97c-2.415-5.571-5.75-10.97-9.967-16.021-5.098-6.148-10.178-10.258-12.765-12.16l9.775-18.173c.48-.903.326-2.017-.422-2.728C98.73 32.21 96.046 31 93.056 31c-2.741 0-5.252 1.037-7.437 1.96-1.725.71-3.355 1.402-4.677 1.402-.403 0-.748-.058-1.093-.192-4.562-1.672-8.07-2.709-11.462-2.709-4.293 0-7.954 1.729-11.539 5.417a2.323 2.323 0 0 0-.268 2.882l10.542 15.963c-2.607 1.94-7.59 6.013-12.593 12.026-4.198 5.052-7.552 10.45-9.967 16.02C41.533 90.782 40 98.1 40 105.517c0 9.854 8.012 17.884 17.845 17.884h43.51c9.833 0 17.845-8.03 17.845-17.884 0-7.416-1.533-14.735-4.562-21.746z"/><circle cx="79.6" cy="91" r="18" stroke="#222" stroke-width="2.4"/><text fill="#222" font-family="SpoqaHanSans-Bold, SpoqaHanSans" font-size="21.6" font-weight="bold"><tspan x="70" y="99.2">M</tspan></text><circle cx="80" cy="80" r="80" stroke="#E0E0E0" stroke-width="2"/></g></svg>